<svg width="24" height="24" viewBox="0 0 24 24" fill="none" xmlns="http://www.w3.org/2000/svg">
<path d="M19 14.4999C19 15.0909 18.9127 15.6761 18.7432 16.222C18.5736 16.768 18.3251 17.2641 18.0118 17.6819C17.3791 18.5258 16.5209 18.9999 15.6261 18.9999H6.6289C5.96464 19.0015 5.32464 18.6671 4.838 18.064C4.35136 17.461 4.0543 16.6343 4.00674 15.7506C3.95918 14.8669 4.16465 13.992 4.58172 13.3024C4.99878 12.6129 5.5964 12.1599 6.25402 12.0349C6.2467 10.3337 7.00378 9 7.75355 8.5C8.50331 8 10.3777 8.5 10.8003 5.05766C12.0644 4.83012 13.3474 5.22438 14.4094 6.16672C15.4714 7.10906 16.2397 8.53498 16.5708 10.1779C17.2717 10.451 17.8874 11.0198 18.3254 11.799C18.7634 12.5783 19.0001 13.526 19 14.4999Z" stroke="#808080" stroke-width="1.5" stroke-linejoin="round"/>
</svg>
